<svg width="16" height="16" viewBox="0 0 16 16" fill="none" xmlns="http://www.w3.org/2000/svg">
<path d="M10.0999 8.34727V9.04727C10.0999 11.0269 10.0999 12.0174 10.7152 12.632C11.3298 13.2473 12.3203 13.2473 14.2999 13.2473M14.0836 11.8473V14.6473M5.89991 6.82827L5.52401 6.86957C4.96121 6.93257 4.67981 6.96337 4.45581 6.93957C3.36241 6.82057 2.50001 5.85107 2.40551 4.63377C2.38591 4.38457 2.41741 4.07237 2.47971 3.44727M9.18361 4.14727H9.19061M11.4999 4.14727H14.6499" stroke="#8A8A8A" stroke-linecap="round" stroke-linejoin="round"/>
<path d="M1.17215 2.20402C1.01675 1.57612 0.939051 1.26252 1.05735 1.02872C1.09725 0.949368 1.15189 0.878338 1.21835 0.819417C1.41505 0.647217 1.73495 0.647217 2.37685 0.647217H11.1885C13.2934 0.647217 15 2.37062 15 4.49722C15 6.62382 13.2934 8.34722 11.1878 8.34722H7.86345C7.29225 8.34722 7.00665 8.34722 6.76165 8.24922C6.57245 8.17328 6.40211 8.05694 6.26255 7.90832C6.08125 7.71442 5.97555 7.44632 5.76345 6.91152L5.38685 5.96162C5.16985 5.41212 5.06065 5.13772 4.85975 4.93402C4.65815 4.73102 4.38655 4.62112 3.84265 4.40202L2.65825 3.92322C2.14935 3.71742 1.89525 3.61522 1.70415 3.43322C1.63723 3.3698 1.57674 3.29993 1.52355 3.22462C1.37165 3.00902 1.30515 2.74092 1.17215 2.20402Z" stroke="#8A8A8A" stroke-linecap="round" stroke-linejoin="round"/>
</svg>
