<svg width="16" height="16" viewBox="0 0 16 16" fill="none" xmlns="http://www.w3.org/2000/svg">
<path d="M14.65 11.1472H1.34998M14.65 4.14722H1.34998M7.99998 0.647217V4.14722M7.99998 14.6472V11.1472M11.5 0.997217V4.14722M11.5 14.2972V11.1472M4.49998 0.997217V4.14722M4.49998 14.2972V11.1472M9.39998 7.64722C9.39998 7.27762 9.02898 7.02842 8.28768 6.53002C7.53658 6.02532 7.16068 5.77262 6.88068 5.95812C6.59998 6.14362 6.59998 6.64412 6.59998 7.64722C6.59998 8.65032 6.59998 9.15082 6.87998 9.33632C7.15998 9.52182 7.53658 9.26912 8.28768 8.76442C9.02968 8.26602 9.39998 8.01682 9.39998 7.64722Z" stroke="#8A8A8A" stroke-linecap="round"/>
<path d="M1 7.64722C1 4.34742 1 2.69752 2.0248 1.67202C3.051 0.647217 4.7002 0.647217 8 0.647217C11.2998 0.647217 12.9497 0.647217 13.9745 1.67202C14.5464 2.24392 14.7991 3.00902 14.9111 4.14722M15 7.64722C15 10.947 15 12.5969 13.9745 13.6217C12.9504 14.6472 11.2998 14.6472 8 14.6472C4.7002 14.6472 3.0503 14.6472 2.0248 13.6217C1.4536 13.0505 1.2009 12.2847 1.0889 11.1472" stroke="#8A8A8A" stroke-linecap="round"/>
</svg>
