<svg width="13" height="15" viewBox="0 0 13 15" fill="none" xmlns="http://www.w3.org/2000/svg">
<path d="M0.917764 12.1247C0.917764 12.4037 1.14552 12.6292 1.42742 12.6292H10.5694C10.8513 12.6292 11.079 12.4037 11.079 12.1247V8.45127C11.079 5.67334 8.80469 3.42199 5.9984 3.42199C3.1921 3.42199 0.917764 5.67334 0.917764 8.45127V12.1247ZM2.06449 8.45127C2.06449 6.30082 3.82599 4.55713 5.9984 4.55713C8.17081 4.55713 9.93231 6.30082 9.93231 8.45127V11.4941H4.27831V8.79812C4.27831 8.71141 4.20664 8.64046 4.11904 8.64046H3.41826C3.33067 8.64046 3.259 8.71141 3.259 8.79812V11.4941H2.06449V8.45127ZM1.29841 4.47041L1.92911 3.84609C1.97849 3.79722 1.97849 3.71681 1.92911 3.66794L0.847686 2.59744C0.823739 2.57397 0.7914 2.5608 0.7577 2.5608C0.723999 2.5608 0.691661 2.57397 0.667714 2.59744L0.0370139 3.22177C0.0133018 3.24547 0 3.27748 0 3.31084C0 3.3442 0.0133018 3.37621 0.0370139 3.39992L1.11844 4.47041C1.16781 4.51929 1.24745 4.51929 1.29841 4.47041ZM11.963 3.22177L11.3323 2.59744C11.3083 2.57397 11.276 2.5608 11.2423 2.5608C11.2086 2.5608 11.1762 2.57397 11.1523 2.59744L10.0709 3.66794C10.0472 3.69164 10.0339 3.72365 10.0339 3.75701C10.0339 3.79037 10.0472 3.82239 10.0709 3.84609L10.7016 4.47041C10.7509 4.51929 10.8322 4.51929 10.8815 4.47041L11.963 3.39992C12.0123 3.34947 12.0123 3.27064 11.963 3.22177ZM11.095 13.6382H0.901837C0.619933 13.6382 0.392181 13.8637 0.392181 14.1427V14.5211C0.392181 14.5905 0.449517 14.6472 0.519595 14.6472H11.4772C11.5473 14.6472 11.6046 14.5905 11.6046 14.5211V14.1427C11.6046 13.8637 11.3769 13.6382 11.095 13.6382ZM5.55245 2.41298H6.44435C6.51443 2.41298 6.57176 2.35623 6.57176 2.28686V0.773343C6.57176 0.703974 6.51443 0.647217 6.44435 0.647217H5.55245C5.48237 0.647217 5.42504 0.703974 5.42504 0.773343V2.28686C5.42504 2.35623 5.48237 2.41298 5.55245 2.41298Z" fill="#8A8A8A"/>
<circle cx="11" cy="8.14722" r="2" fill="#D92D20"/>
</svg>
